HIERARCHY
ROOT ui
{
	 OFFSET 0 0 0
	 CHANNELS 3 XPosition YPosition Z Position
	 EndSite
	 {
	 OFFSET 0 -1 0
	 }
}
ROOT li
{
	 OFFSET 0 0 0
	 CHANNELS 3 XPosition YPosition Z Position
	 EndSite
	 {
	 OFFSET 0 -1 0
	 }
}
ROOT ul
{
	 OFFSET 0 0 0
	 CHANNELS 3 XPosition YPosition Z Position
	 EndSite
	 {
	 OFFSET 0 -1 0
	 }
}
ROOT ll
{
	 OFFSET 0 0 0
	 CHANNELS 3 XPosition YPosition Z Position
	 EndSite
	 {
	 OFFSET 0 -1 0
	 }
}
ROOT tt
{
	 OFFSET 0 0 0
	 CHANNELS 3 XPosition YPosition Z Position
	 EndSite
	 {
	 OFFSET 0 -1 0
	 }
}
ROOT tb
{
	 OFFSET 0 0 0
	 CHANNELS 3 XPosition YPosition Z Position
	 EndSite
	 {
	 OFFSET 0 -1 0
	 }
}
ROOT td
{
	 OFFSET 0 0 0
	 CHANNELS 3 XPosition YPosition Z Position
	 EndSite
	 {
	 OFFSET 0 -1 0
	 }
}
ROOT v
{
	 OFFSET 0 0 0
	 CHANNELS 3 XPosition YPosition Z Position
	 EndSite
	 {
	 OFFSET 0 -1 0
	 }
}
ROOT bn
{
	 OFFSET 0 0 0
	 CHANNELS 3 XPosition YPosition Z Position
	 EndSite
	 {
	 OFFSET 0 -1 0
	 }
}
MOTION
Frames: 27
Frame Time: 0.002
-0.02670928192138672	-5.666630268096924E-4	0		0.44850592041015624	-2.293842529296875	0		-1.17379638671875	0.2748606262207031	0		-0.6209544067382813	-2.700295166015625	0		1.8305264892578126	-0.17367156982421875	0		3.504529296875	0.1872373046875	0		4.77388623046875	0.02849392509460449	0		5.917486328125	0.48024749755859375	0		-0.30110198974609376	5.87974658203125	0		
-0.02330670356750488	0.002271857023239136	0		0.47992425537109373	-2.29130322265625	0		-1.0824443359375	0.27273919677734376	0		-0.5775120239257813	-2.695893798828125	0		1.8579830322265625	-0.1660787353515625	0		3.49419091796875	0.21425259399414062	0		4.77340771484375	0.042411479949951175	0		5.9128505859375	0.5009930114746094	0		-0.26671340942382815	5.88524755859375	0		
-0.022979482650756836	0.0021362969875335694	0		0.4553150939941406	-2.287164794921875	0		-1.122116943359375	0.27302706909179686	0		-0.5771625366210937	-2.696033935546875	0		1.8674407958984376	-0.15429672241210937	0		3.491311279296875	0.1951795654296875	0		4.77966943359375	0.036251007080078126	0		5.90944873046875	0.48536831665039065	0		-0.35065667724609373	5.8650185546875	0		
-0.02572311210632324	-9.721080064773559E-4	0		0.46963299560546873	-2.286452880859375	0		-1.009783203125	0.27666741943359374	0		-0.58978564453125	-2.69003955078125	0		1.855698974609375	-0.15729197692871094	0		3.49480322265625	0.21403482055664064	0		4.76995849609375	0.036258617401123044	0		5.89467724609375	0.48560418701171876	0		-0.2973992004394531	5.866302734375	0		
-0.025462650299072267	-0.0011174570322036743	0		0.44294635009765626	-2.283302978515625	0		-1.121572509765625	0.27272235107421877	0		-0.5895028686523438	-2.690189453125	0		1.8469827880859375	-0.15532475280761718	0		3.495921630859375	0.20090866088867188	0		4.7761533203125	0.030088685989379884	0		5.90340625	0.4817546081542969	0		-0.2961982421875	5.86514453125	0		
0.05176990509033203	-0.0030960218906402586	0		0.4790914001464844	-2.29483544921875	0		-1.0813291015625	0.27213397216796875	0		-0.5783208618164063	-2.698460693359375	0		1.83128662109375	-0.15028651428222656	0		3.48545947265625	0.22790463256835938	0		4.7704658203125	0.036042015075683595	0		5.9035830078125	0.4815785217285156	0		-0.31494140625	5.8701982421875	0		
-0.02193058204650879	0.0015509430170059205	0		0.4205570983886719	-2.276347900390625	0		-1.111990966796875	0.28030947875976564	0		-0.5740067138671875	-2.694658447265625	0		1.8545816650390625	-0.1466718292236328	0		3.49555859375	0.21367213439941407	0		4.78071728515625	0.03581782913208008	0		5.90670751953125	0.5020758056640625	0		-0.3157201232910156	5.87105615234375	0		
0.05533596420288086	5.712680220603943E-4	0		0.47478518676757814	-2.282076904296875	0		-1.076766845703125	0.2757754821777344	0		-0.58462158203125	-2.685694580078125	0		1.854853515625	-0.1468109588623047	0		3.4859794921875	0.22764996337890625	0		4.78098779296875	0.03569672012329102	0		5.914025390625	0.499962646484375	0		-0.3296136474609375	5.85905517578125	0		
-0.021358970642089845	0.0012510119676589966	0		0.44407785034179686	-2.283889892578125	0		-1.1264539794921875	0.2771587829589844	0		-0.5754259643554688	-2.69694287109375	0		1.8771859130859374	-0.1441874237060547	0		3.506202392578125	0.2203040313720703	0		4.77722412109375	0.029615682601928713	0		5.90711572265625	0.5016740417480469	0		-0.28116314697265626	5.87538671875	0		
0.052930469512939456	-0.0036910018920898436	0		0.46248773193359377	-2.27822802734375	0		-1.0861207275390625	0.2765776062011719	0		-0.61306494140625	-2.695682861328125	0		1.837525634765625	-0.14389541625976562	0		3.495743408203125	0.23928985595703126	0		4.7765390625	0.02750050926208496	0		5.90441064453125	0.4807802429199219	0		-0.30079620361328124	5.8804541015625	0		
-0.020646879196166992	9.630770087242127E-4	0		0.41783013916015627	-2.281884033203125	0		-1.120701171875	0.28080856323242187	0		-0.576715087890625	-2.69921337890625	0		1.8419549560546875	-0.1390742950439453	0		3.509891357421875	0.21801039123535157	0		4.77691455078125	0.027374584197998045	0		5.9119560546875	0.5132511596679687	0		-0.29747259521484376	5.87727978515625	0		
0.05676094818115234	-8.600000001024455E-8	0		0.46021307373046877	-2.2854697265625	0		-1.1052581787109375	0.28350921630859377	0		-0.6353038330078125	-2.699715576171875	0		1.849453125	-0.13128099060058593	0		3.533645751953125	0.2496342010498047	0		4.790390625	0.033110359191894534	0		5.91225048828125	0.5130411987304687	0		-0.2980632629394531	5.878154296875	0		
-0.012716602325439454	0.007624890804290772	0		0.4517458190917969	-2.2775	0		-1.070763671875	0.2880148010253906	0		-0.5738283081054687	-2.69749951171875	0		1.8790238037109375	-0.1197181167602539	0		3.50189697265625	0.23185678100585938	0		4.78285546875	0.035075485229492186	0		5.901078125	0.4958335876464844	0		-0.29960635375976563	5.88004833984375	0		
0.057667106628417966	-2.4492500722408294E-4	0		0.4662193908691406	-2.27676806640625	0		-1.0753433837890625	0.2839507141113281	0		-0.6143944091796875	-2.7001767578125	0		1.87948681640625	-0.11983535003662109	0		3.501499755859375	0.24475	0		4.783318359375	0.03495906829833984	0		5.89777392578125	0.4801566162109375	0		-0.31226248168945314	5.86907080078125	0		
-0.01886198616027832	4.750379920005798E-4	0		0.4735653076171875	-2.287950927734375	0		-1.0848653564453126	0.2849512939453125	0		-0.5470416259765625	-2.711003662109375	0		1.876899658203125	-0.1249121322631836	0		3.530964599609375	0.24432757568359376	0		4.78869873046875	0.026794038772583007	0		5.8946171875	0.4973536376953125	0		-0.27773934936523437	5.87359765625	0		
-0.018412506103515625	3.7740498781204225E-4	0		0.44704400634765623	-2.284759521484375	0		-1.1134244384765626	0.28416766357421874	0		-0.6175289306640624	-2.704337158203125	0		1.8804024658203125	-0.12004612731933594	0		3.525619140625	0.26328622436523436	0		4.79221240234375	0.032654129028320315	0		5.898572265625	0.5126400756835937	0		-0.29623394775390627	5.87770458984375	0		
-0.018000644683837892	2.897990047931671E-4	0		0.4515017395019531	-2.279891845703125	0		-1.1089688720703126	0.28804046630859376	0		-0.5692365112304687	-2.7149384765625	0		1.884856689453125	-0.116183349609375	0		3.539945068359375	0.25503662109375	0		4.79668896484375	0.03850704193115234	0		5.89886572265625	0.5124539794921875	0		-0.2617398376464844	5.88325146484375	0		
-0.01764362335205078	2.1205300092697144E-4	0		0.451847412109375	-2.279971923828125	0		-1.1135562744140626	0.29302166748046876	0		-0.594966796875	-2.721733154296875	0		1.8802779541015624	-0.11021710205078125	0		3.544453857421875	0.2688973388671875	0		4.7999169921875	0.026373754501342772	0		5.9062529296875	0.5120819702148437	0		-0.34458547973632814	5.8620693359375	0		
-0.017354150772094727	1.439329981803894E-4	0		0.46815243530273437	-2.2772158203125	0		-1.0824495849609375	0.2756283569335938	0		-0.5757081298828125	-2.723001953125	0		1.8765238037109375	-0.11425511169433594	0		3.53567041015625	0.2619017639160156	0		4.80327099609375	0.032239505767822266	0		5.9064599609375	0.5118923034667969	0		-0.27614077758789063	5.87227099609375	0		
-0.017140499114990236	8.514499664306641E-5	0		0.4393467407226562	-2.276966552734375	0		-1.1222310791015624	0.276010498046875	0		-0.577541015625	-2.72503369140625	0		1.880779296875	-0.11037472534179688	0		3.530962158203125	0.2688636474609375	0		4.80348486328125	0.032136199951171875	0		5.9036669921875	0.4910109558105469	0		-0.3089464111328125	5.8655703125	0		
-0.017006582260131835	3.536200150847435E-5	0		0.4753330078125	-2.288409423828125	0		-1.0770533447265624	0.2794880065917969	0		-0.5576454467773437	-2.744291748046875	0		1.885846923828125	-0.11650049591064453	0		3.545011962890625	0.26062142944335936	0		4.80259765625	0.030040449142456054	0		5.90376220703125	0.4908030090332031	0		-0.2926363525390625	5.87535107421875	0		
-0.016952009201049806	-5.766999907791615E-6	0		0.427486572265625	-2.27593994140625	0		-1.14195849609375	0.28316439819335937	0		-0.5885535278320313	-2.736990478515625	0		1.8960396728515625	-0.10367822265625	0		3.56742578125	0.2932886657714844	0		4.815716796875	0.03578810501098633	0		5.90870166015625	0.46969134521484374	0		-0.3255696105957031	5.8686708984375	0		
-0.009896889686584472	0.006885134220123291	0		0.48340142822265625	-2.27858642578125	0		-1.0679239501953126	0.2873502197265625	0		-0.5556779174804688	-2.7423701171875	0		1.9000714111328125	-0.09878838348388672	0		3.535206787109375	0.2745400390625	0		4.81365380859375	0.03169203567504883	0		5.90868701171875	0.4694524841308594	0		-0.3075309448242188	5.86444873046875	0		
-0.01705885887145996	-6.437300145626068E-5	0		0.423249755859375	-2.279971923828125	0		-1.1120455322265625	0.28382345581054685	0		-0.5629072875976563	-2.750308349609375	0		1.9098521728515625	-0.11096120452880859	0		3.555135498046875	0.2752243957519531	0		4.81848095703125	0.023513248443603516	0		5.8995390625	0.5109567565917968	0		-0.30749691772460935	5.86442919921875	0		
-0.017199939727783203	-8.430299907922745E-5	0		0.4660635986328125	-2.279469482421875	0		-1.0672369384765625	0.2783405456542969	0		-0.567156005859375	-2.754271728515625	0		1.875645263671875	-0.11665650939941406	0		3.563989501953125	0.2740230712890625	0		4.80342822265625	0.03154255294799805	0		5.90362451171875	0.48980908203125	0		-0.28755615234375	5.85919873046875	0		
-0.020412111282348634	-0.0030675730705261232	0		0.422816162109375	-2.28002978515625	0		-1.147404541015625	0.27922305297851563	0		-0.5585277709960937	-2.765370849609375	0		1.8754625244140626	-0.11672195434570312	0		3.578044921875	0.2947599182128906	0		4.8222265625	0.02919400215148926	0		5.91567529296875	0.5013010559082032	0		-0.30554937744140626	5.8623857421875	0		
0.059416568756103516	-9.55331027507782E-4	0		0.4785159912109375	-2.283667724609375	0		-1.1025548095703126	0.2827494812011719	0		-0.5937708740234375	-2.761987548828125	0		1.8882919921875	-0.11393206787109375	0		3.56362548828125	0.273797607421875	0		4.82509326171875	0.03500906372070312	0		5.9082529296875	0.46830282592773437	0		-0.3065708312988281	5.863390625	0		
